<?xml version="1.0" encoding="UTF-8"?><svg id="Layer_2" xmlns="http://www.w3.org/2000/svg" viewBox="0 0 445.02 101.75"><defs><style>.cls-1{fill:#e02830;}.cls-2{fill:#f37721;}.cls-2,.cls-3{fill-rule:evenodd;}.cls-4{fill:#e8a323;}</style></defs><g id="Layer_1-2"><path d="M40.54,100.24V26.56c0-1.93-.39-3.79-1.13-5.58-.74-1.79-1.8-3.37-3.18-4.73-1.34-1.36-2.93-2.47-4.66-3.29-1.77-.82-3.64-1.22-5.65-1.22s-3.88.39-5.65,1.22c-1.77.82-3.28,1.9-4.59,3.22-1.31,1.32-2.37,2.9-3.18,4.73-.81,1.83-1.2,3.72-1.2,5.66v73.68H0V26.56c0-3.65.71-7.12,2.12-10.31,1.41-3.22,3.28-6.01,5.65-8.41,2.37-2.4,5.08-4.3,8.23-5.66C19.1.79,22.42.11,25.92.11s6.85.72,10.03,2.15c3.18,1.43,5.93,3.33,8.3,5.73,2.37,2.4,4.24,5.19,5.58,8.41,1.34,3.22,2.05,6.59,2.05,10.17v73.68h-11.33Z"/><path d="M249.79,101.75c-4.73,0-9.92-1.36-15.61-4.05-5.69-2.69-11.55-6.55-17.55-11.53-5.33-4.3-11.02-6.98-17.02-8.09v22.16h-11.44v-21.55c-1.41.39-2.86.93-4.38,1.54-1.52.61-2.93,1.32-4.24,2.15l-6.04-9.49c4.91-3.15,9.82-5.19,14.62-6.12V1.18h5.72c5.44,0,10.56,1.04,15.36,3.15,4.84,2.08,9.04,4.9,12.68,8.41,3.6,3.51,6.5,7.59,8.58,12.24,2.12,4.65,3.18,9.56,3.18,14.75,0,6.52-1.62,12.6-4.84,18.26-3.21,5.66-7.49,10.28-12.82,13.82,2.93,1.72,5.58,3.58,7.98,5.51,4.73,3.76,9.43,6.84,14.09,9.24,4.66,2.4,8.76,3.58,12.29,3.58v10.99l-.6.61h.04ZM222.35,39.7c0-3.15-.56-6.19-1.73-9.09-1.17-2.9-2.75-5.51-4.84-7.88-2.05-2.33-4.48-4.33-7.24-5.94-2.75-1.61-5.76-2.76-8.97-3.37v52.88c3.21-.61,6.21-1.72,8.97-3.37,2.75-1.61,5.19-3.62,7.24-5.98,2.05-2.33,3.67-4.98,4.84-7.95,1.17-2.97,1.73-6.05,1.73-9.31Z"/><path d="M403.1,66.91c0,4.58-.88,8.88-2.65,12.92-1.77,4.01-4.13,7.55-7.1,10.56-2.97,3.01-6.43,5.41-10.42,7.2-3.95,1.79-8.23,2.69-12.75,2.69h-16.74V1.18h5.72c3.92,0,7.63.79,11.09,2.36,3.46,1.58,6.5,3.76,9.11,6.48,2.61,2.76,4.7,5.91,6.25,9.49,1.55,3.58,2.33,7.34,2.33,11.31,0,1.32-.11,2.65-.32,3.97-.21,1.32-.39,2.54-.6,3.65,4.91,3.04,8.83,7.12,11.69,12.14,2.86,5.05,4.31,10.45,4.31,16.29l.07.04ZM391.66,66.91c0-4.48-1.62-8.84-4.91-13.07-3.28-4.22-8.12-7.3-14.55-9.24,1.41-2.65,2.54-4.94,3.39-6.87.85-1.93,1.27-4.22,1.27-6.87,0-3.87-1.17-7.34-3.46-10.38-2.3-3.04-5.19-5.26-8.58-6.59v74.75h5.44c2.93,0,5.69-.57,8.3-1.68,2.61-1.11,4.91-2.69,6.85-4.65,1.98-1.97,3.5-4.3,4.59-6.95s1.66-5.44,1.66-8.41v-.04Z"/><path class="cls-3" d="M108.97,80.09v20.16h11.37v-20.16h5.33v-11.46h-5.33V26.56c0-3.58-.71-6.95-2.05-10.17-1.34-3.22-3.21-6.01-5.58-8.41-2.37-2.4-5.12-4.3-8.3-5.73-3.18-1.43-6.5-2.15-10.03-2.15s-6.85.72-9.96,2.08c-3.14,1.36-5.86,3.26-8.23,5.66-2.37,2.4-4.24,5.19-5.65,8.41-1.41,3.19-2.12,6.66-2.12,10.31v42.07h-5.44v11.46h5.44v20.16h11.3v-20.16h29.24ZM108.97,68.63V26.56c0-1.93-.39-3.8-1.13-5.59-.74-1.79-1.8-3.37-3.18-4.73-1.34-1.36-2.93-2.47-4.66-3.29-1.77-.82-3.64-1.22-5.65-1.22s-3.88.39-5.65,1.22c-1.77.82-3.28,1.9-4.59,3.22-1.31,1.32-2.37,2.9-3.18,4.73-.81,1.83-1.2,3.72-1.2,5.66v42.07h29.24Z"/><path class="cls-4" d="M445.02,16.33c0,3.58-.95,6.77-2.86,9.56-1.91,2.79-4.52,4.76-7.84,5.87v68.49h-11.16V31.76c-3.21-1.11-5.76-3.08-7.63-5.87-1.87-2.79-2.79-5.98-2.79-9.56,0-2.26.42-4.37,1.27-6.34.85-2,2.01-3.72,3.46-5.19,1.45-1.47,3.14-2.65,5.05-3.51,1.91-.86,3.95-1.29,6.18-1.29s4.31.43,6.25,1.29c1.94.86,3.71,2.08,5.19,3.58,1.52,1.54,2.68,3.29,3.53,5.26.85,2,1.27,4.05,1.27,6.19h.07Z"/><path class="cls-1" d="M147.28,3.93c1.94-.09,4.19-.18,6.42-.13,1.55,0,3.07,0,4.52.04.8.02,1.57.06,2.3.1.58.03,1.14.06,1.65.08,1.17.07,3.88-.25,3.92-.82l.11-1.4c.04-.61-2.68-1.25-3.85-1.32-1.17-.07-2.58-.14-4.02-.18-1.48,0-3.07,0-4.63-.04-2.28-.05-4.57.05-6.56.13-.76.03-1.47.06-2.12.08-1.16.07-3.88.75-3.85,1.32.07.86.67,1.57,1.52,1.79.88.21,1.94.47,2.58.43h-.04c.63-.02,1.32-.05,2.05-.08Z"/><path class="cls-1" d="M145.37,12.49c2.3,1.43,5.01,2,7.7,1.58,2.82-.43,6.25-.97,7.38-1.22,1.24-.29,2.4-.86,3.43-1.65.85-.68,1.87-1.47,3-2.26,1.01-.72,2.16-1.18,3.15-1.58.39-.16.76-.31,1.09-.46l.42-.21c.42-.18.32-.82-.14-.86-.33-.04-.7-.07-1.11-.11-.25-.02-.51-.04-.79-.07-.24-.02-.5-.05-.77-.07-.13-.01-.27-.02-.4-.04-.39,0-.79-.03-1.21-.06h-.1c-.66-.05-1.35-.08-2.08-.12-1.3-.07-2.69-.15-4.14-.24-.28,0-.56-.02-.84-.03-.29-.02-.59-.04-.89-.04h-9.04c-.63.02-1.25.05-1.85.07-.56.03-1.1.05-1.64.07-.59.02-1.17.05-1.75.08-.52.03-1.03.05-1.54.07-1.06.04-2.01.11-2.93.18-.99.1-1.88.17-2.66.24-.64.06-1.2.1-1.68.15-.46.04-.56.68-.14.86.78.36,5.93,3.54,9.53,5.8v-.07Z"/><path class="cls-1" d="M165.89,19.8c2.97-1.43,2.22-3.47.25-4.44h-.03c-.42-.21-1.1-.54-1.62-.68-2.67-.61-5.5-.3-8.58.03-1.11.12-2.25.24-3.42.33-.53.04-1.04.07-1.54.11h0s0,0,0,0c-1.35.1-2.66.19-4.28.32-2.01.21-4.63.57-5.97,1.4-1.84,1.07-1.24,2.76.99,3.33,1.23.29,3.17.34,4.85.39h0c.4.01.79.02,1.15.04,3.99.18,8.19.25,12.08.25,1.98-.04,4.48-.25,6.14-1.07Z"/><path class="cls-1" d="M141.31,25.13c.42-.25,1.09-.57,1.62-.68,2.64-.59,5.41-.3,8.4.02,1.17.12,2.37.25,3.61.33.53.04,1.04.07,1.54.11,1.35.1,2.66.19,4.28.32,2.01.21,4.63.57,5.97,1.4,1.84,1.07,1.24,2.76-.99,3.33-1.09.26-2.75.31-4.29.36-.6.02-1.18.04-1.71.07-3.99.18-8.19.29-12.08.25-1.98,0-4.48-.25-6.14-1.07-2.93-1.43-2.19-3.51-.25-4.44h.04Z"/><path class="cls-1" d="M165.89,39.38c2.97-1.43,2.22-3.47.25-4.44h-.03c-.42-.21-1.1-.54-1.62-.68-2.67-.61-5.5-.3-8.58.03-1.11.12-2.25.24-3.42.33-.53.04-1.04.07-1.54.11h0c-1.35.1-2.66.19-4.28.32-2.01.21-4.63.57-5.97,1.4-1.84,1.07-1.24,2.76.99,3.33,1.23.29,3.17.34,4.85.39.4.01.79.02,1.15.04,3.99.18,8.19.25,12.08.25,1.98-.04,4.48-.25,6.14-1.07Z"/><path class="cls-1" d="M141.31,44.72c.42-.25,1.09-.57,1.62-.68,2.64-.59,5.41-.3,8.4.02,1.17.13,2.37.25,3.61.33.53.04,1.04.07,1.54.11h0c1.35.1,2.66.19,4.28.32,2.01.21,4.63.57,5.97,1.4,1.84,1.07,1.24,2.76-.99,3.33-1.09.26-2.75.31-4.29.36-.6.02-1.18.04-1.71.07-3.99.18-8.19.29-12.08.25-1.98,0-4.48-.25-6.14-1.07-2.93-1.43-2.19-3.51-.25-4.44h.04Z"/><path class="cls-1" d="M165.89,58.97c2.97-1.43,2.22-3.47.25-4.44h-.03c-.42-.22-1.1-.54-1.62-.68-2.67-.61-5.5-.3-8.58.03-1.11.12-2.25.24-3.42.33-.53.04-1.04.07-1.54.11h0c-1.35.1-2.66.19-4.28.32-2.01.21-4.63.57-5.97,1.4-1.84,1.07-1.24,2.76.99,3.33,1.23.29,3.17.34,4.85.39h0c.4.01.79.02,1.15.04,3.99.18,8.19.25,12.08.25,1.98-.04,4.48-.25,6.14-1.07Z"/><path class="cls-1" d="M141.31,64.3c.42-.25,1.09-.57,1.62-.68,2.64-.59,5.41-.3,8.4.02,1.17.13,2.37.25,3.61.33.53.04,1.04.07,1.54.11h0c1.35.1,2.66.19,4.28.32,2.01.22,4.63.57,5.97,1.4,1.84,1.07,1.24,2.76-.99,3.33-1.09.26-2.75.31-4.29.36h0c-.6.02-1.18.04-1.71.07-3.99.18-8.19.29-12.08.25-1.98,0-4.48-.25-6.14-1.07-2.93-1.43-2.19-3.51-.25-4.44h.04Z"/><path class="cls-1" d="M165.89,78.55c2.97-1.43,2.22-3.47.25-4.44h-.03c-.42-.21-1.1-.54-1.62-.68-2.67-.61-5.5-.3-8.58.03-1.11.12-2.25.24-3.42.33-.53.04-1.04.07-1.55.11-1.35.1-2.66.19-4.28.32-2.01.21-4.63.57-5.97,1.4-1.84,1.07-1.24,2.76.99,3.33,1.23.29,3.17.34,4.85.39h0c.4.01.79.02,1.15.04,3.99.18,8.19.25,12.08.25,1.98-.04,4.48-.25,6.14-1.07Z"/><path class="cls-1" d="M141.31,84.38c.42-.25,1.09-.57,1.62-.68,2.64-.59,5.41-.3,8.4.02,1.17.13,2.37.25,3.61.33.53.04,1.04.07,1.54.11h0c1.35.1,2.66.19,4.28.32,2.01.22,4.63.57,5.97,1.4,1.84,1.07,1.24,2.76-.99,3.33-1.09.26-2.75.31-4.29.36-.6.02-1.18.04-1.71.07-3.99.18-8.19.29-12.08.25-1.98,0-4.48-.25-6.14-1.07-2.93-1.43-2.19-3.51-.25-4.44h.04Z"/><path class="cls-1" d="M142.94,93.98c-.53.11-1.2.43-1.62.68h-.04c-1.94.93-2.68,3.01.25,4.44,1.66.82,4.17,1.07,6.14,1.07,3.88.04,8.09-.07,12.08-.25.52-.03,1.11-.05,1.71-.07,1.54-.05,3.2-.1,4.29-.36,2.22-.57,2.82-2.26.99-3.33-1.34-.82-3.95-1.18-5.97-1.4-1.62-.13-2.93-.22-4.28-.32-.5-.04-1.01-.07-1.55-.11-1.24-.08-2.44-.21-3.61-.33-2.99-.32-5.76-.62-8.4-.02Z"/><path class="cls-2" d="M300.14,6.09c1.27-.11,1.73.86,2.22,2.08.46,1.25.95,3.15.78,5.19-.11,1.18-.39,2.15-.6,3.15-.46,2.18-1.77,5.41-4.66,4.22-3.21-1.36-2.61-9.56-.88-12.1.71-1.07,2.01-2.43,3.18-2.54h-.04ZM290.67,100.32c-2.79-1.07-2.51-4.8-2.51-8.27-.07-3.15-.07-5.62,2.51-6.37,2.12-.5,4.1,1.68,4.27,4.15.18,1.9-.28,3.54-.78,5.69-.46,1.86-.78,4.05-1.94,4.62-.39.18-.95.18-1.55.18ZM309.57,84.1c2.05-.72,4.1.97,4.87,3.04.56,1.5.85,3.08,1.17,4.44.67,2.54,1.73,4.94-.11,5.87-1.38.72-2.82-.11-3.67-1-.78-.72-1.34-1.86-2.01-3.04-1.48-2.65-4.17-7.88-.28-9.27l.04-.04ZM273.97,80.27c1.45-.61,3.46,0,3.71,2.36.18,1.36-.46,2.86-1.06,4.01-1.24,2.18-2.68,4.51-4.1,6.66-.67,1-1.48,2.47-2.26,3.15-1.24.97-2.82.47-3.18-1.11-.28-1.18.28-2.83.71-4.05.56-1.36.99-2.29,1.48-3.47,1.17-2.65,1.66-5.3,3.57-6.91.28-.21.78-.47,1.09-.57l.04-.07ZM334.21,83.7c-.49.89-1.45,1.4-2.82,1.11-1.45-.29-2.93-1.11-4.59-1.97-1.62-.86-3.11-1.57-4.17-2.43-.71-.61-1.62-1.86-1.45-3.15.21-2.04,2.79-2.83,4.73-1.97,1.77.72,4.2,2.97,5.83,4.4,1.24,1,2.65,1.68,2.51,4.01h-.04ZM259.6,70.82c1.48-.21,3.39.18,3.5,2.15.11,1.97-1.48,3.72-2.72,4.55-1.84,1.29-5.33,1.68-7.56,2.94-.85.47-1.73,1.07-2.54.89-.99-.18-1.73-1.5-1.27-2.94.21-.57.95-1.57,1.45-2.15,1.17-1.18,2.54-1.97,4.17-3.08,1.62-1.11,3.18-2.08,5.01-2.36h-.04ZM330.93,57.75c.95-.11,2.33.11,3.5.32.99.18,2.05.32,3.18.57,1.87.39,5.23,1.07,4.45,3.47-.46,1.4-2.51,1.65-4.2,1.86-3.18.32-7.45.57-9.11-.97-.67-.57-1.38-1.65-1.13-2.97.28-1.29,1.66-2.15,3.32-2.29ZM247.38,48.94c2.12-.57,4.59-.11,6.67.11,2.15.18,4.2.29,5.4,1.11,3.39,2.36-.99,6.7-5.54,6.09-1.66-.22-3.32-.97-5.12-1.68-1.34-.57-3.5-1.47-3.78-2.83-.35-1.65,1.09-2.47,2.4-2.83l-.04.04ZM334.92,35.19c1.17-.11,2.83.68,1.84,2.26-.39.68-1.38,1.25-2.12,1.79-.67.5-1.38,1.18-2.12,1.75-1.45,1.18-3,2.76-5.12,2.69-1.48,0-2.82-1.29-2.26-3.08.46-1.57,2.93-2.69,4.27-3.37,1.84-.86,3.32-1.9,5.51-2.04ZM323.65,50.55c.6,10.6-6.6,22.02-15.22,26.56-3.78,2.04-8.83,3.47-14.34,2.43-2.93-.57-5.23-1.79-7.73-2.86-3.78-1.68-6-4.15-8.05-7.98-5.51-10.42.07-31.68,14.48-30.83,7.38.47,18.26,5.12,17.97,14.64-.28,10.35-6.92,12.6-12.89,12.71-2.15.07-5.44-3.87-5.54-6.01-.18-2.08.99-3.47,1.94-4.73.32-.5.99-1.18,1.06-1.68.21-1.68-1.77-3.15-3.32-3.08-2.01.11-3.21,1.79-3.71,3.65-.46,1.79-.99,5.23-1.06,7.16-.07,6.27,4.38,9.27,9.68,10.13,3.28.57,7.38.61,10.28-.86,2.54-1.29,6.6-5.33,8.65-9.85,1.84-4.01,1.77-8.34,1.38-11.31-1.84-14.36-15.32-16.04-25.99-15.32-7.84.57-15.75,6.09-18.82,14-3.88,10.06-3.99,18.69,3.67,26.17.46.47,1.09,1.36.95,1.97-.11.72-1.17.97-1.66,1-1.48.11-2.93-.86-3.95-1.57-7.1-5.73-8.37-20.09-4.45-28.86.49-1.07,1.27-1.97,1.94-2.94,6-8.84,10.7-14.07,21.04-15.86,14.65-2.54,32.63,6.62,33.65,23.34l.04-.04ZM256.49,25.45c1.55-.57,3.39.47,4.66,1.11,1.06.57,1.94,1.25,2.93,1.86,1.73,1.07,4.48,2.47,5.23,4.69.56,1.86-.6,3.94-2.82,4.12-1.73.11-2.9-1.11-4.06-2.18-1.45-1.29-3.11-2.65-4.66-3.94-.95-.86-2.4-1.68-2.72-3.22-.21-1.18.49-2.08,1.45-2.43ZM323.09,14.71c1.06-.18,2.12.21,2.4,1.07.39,1.29-.46,2.54-.71,3.44-.46,1.18-.71,2.18-1.09,3.15-.85,2.04-2.22,3.83-3.57,4.83-1.94,1.4-5.16.72-4.84-2.65.21-2.08,1.73-4.55,2.9-5.91.67-.72,1.45-1.57,2.15-2.18.88-.79,1.73-1.5,2.79-1.75h-.04ZM276.69,8.74c.78-.18,1.55.97,1.77,1.68.32.89.6,2.83,1.17,4.69.21.86.49,1.58.71,2.18.28.68.71,1.4.85,2.08.78,3.87-3.95,4.55-5.4,1.9-.6-1.18-.78-3.83-.88-5.62-.11-2.43-.18-6.48,1.77-6.91h.04Z"/></g></svg>