<?xml version="1.0" encoding="UTF-8"?><svg id="Layer_2" xmlns="http://www.w3.org/2000/svg" viewBox="0 0 456.57 442.65"><defs><style>.cls-1{fill:#f37721;fill-rule:evenodd;}</style></defs><g id="Layer_1-2"><path class="cls-1" d="M259.16.04c5.97-.51,8.13,4.03,10.45,9.75,2.16,5.89,4.48,14.8,3.65,24.38-.5,5.55-1.83,10.09-2.82,14.8-2.16,10.26-8.29,25.39-21.89,19.84-15.09-6.39-12.27-44.9-4.15-56.84,3.32-5.04,9.45-11.44,14.93-11.94h-.17ZM214.71,442.65c-13.1-5.04-11.78-22.53-11.78-38.85-.33-14.8-.33-26.4,11.78-29.93,9.95-2.35,19.24,7.9,20.07,19.51.83,8.91-1.33,16.65-3.65,26.74-2.16,8.74-3.65,19-9.12,21.69-1.82.84-4.48.84-7.3.84ZM303.44,366.47c9.62-3.36,19.24,4.54,22.89,14.3,2.65,7.06,3.98,14.46,5.47,20.85,3.15,11.94,8.13,23.21-.5,27.58-6.47,3.36-13.27-.51-17.25-4.71-3.65-3.36-6.3-8.74-9.45-14.3-6.97-12.44-19.57-37-1.33-43.55l.17-.17ZM136.26,348.48c6.8-2.86,16.25,0,17.41,11.1.83,6.39-2.16,13.45-4.98,18.84-5.81,10.26-12.6,21.19-19.24,31.28-3.15,4.71-6.97,11.6-10.62,14.8-5.8,4.54-13.27,2.19-14.93-5.21-1.33-5.55,1.33-13.28,3.32-19,2.65-6.39,4.64-10.76,6.97-16.31,5.47-12.44,7.8-24.89,16.75-32.46,1.33-1.01,3.65-2.19,5.14-2.69l.17-.34ZM419.21,364.62c-2.32,4.2-6.8,6.56-13.27,5.21-6.8-1.35-13.77-5.21-21.56-9.25-7.63-4.03-14.59-7.4-19.57-11.44-3.32-2.86-7.63-8.74-6.8-14.8,1-9.59,13.1-13.28,22.23-9.25,8.29,3.36,19.74,13.96,27.37,20.68,5.81,4.71,12.44,7.9,11.78,18.84h-.17ZM68.75,304.08c6.97-1.01,15.92.84,16.42,10.09.5,9.25-6.97,17.49-12.77,21.36-8.63,6.05-25.04,7.9-35.49,13.79-3.98,2.19-8.13,5.05-11.94,4.2-4.64-.84-8.13-7.06-5.97-13.79.99-2.69,4.48-7.4,6.8-10.09,5.47-5.55,11.94-9.25,19.57-14.46,7.63-5.21,14.93-9.75,23.55-11.1h-.17ZM403.79,242.7c4.48-.5,10.94.51,16.42,1.51,4.65.84,9.62,1.51,14.93,2.69,8.79,1.85,24.55,5.04,20.9,16.31-2.16,6.56-11.78,7.73-19.74,8.74-14.93,1.51-34.99,2.69-42.79-4.54-3.15-2.69-6.47-7.73-5.31-13.96,1.33-6.05,7.8-10.09,15.59-10.76ZM11.36,201.33c9.95-2.69,21.56-.5,31.35.51,10.12.84,19.74,1.35,25.38,5.21,15.92,11.1-4.64,31.45-26.04,28.59-7.8-1.01-15.59-4.54-24.05-7.91-6.3-2.69-16.42-6.89-17.75-13.28-1.66-7.73,5.14-11.6,11.28-13.29l-.17.17ZM422.53,136.76c5.47-.5,13.27,3.19,8.63,10.59-1.82,3.19-6.47,5.89-9.95,8.41-3.15,2.35-6.47,5.55-9.95,8.24-6.8,5.55-14.1,12.95-24.05,12.61-6.97,0-13.27-6.05-10.62-14.46,2.16-7.4,13.77-12.61,20.07-15.81,8.63-4.04,15.59-8.91,25.87-9.59ZM369.62,208.9c2.82,49.78-31.02,103.42-71.49,124.78-17.75,9.58-41.46,16.31-67.34,11.44-13.77-2.69-24.55-8.41-36.32-13.45-17.75-7.9-28.2-19.51-37.82-37.5-25.87-48.94.33-148.83,68-144.79,34.67,2.19,85.75,24.05,84.42,68.78-1.33,48.6-32.51,59.19-60.54,59.7-10.12.34-25.54-18.16-26.04-28.25-.83-9.75,4.64-16.31,9.12-22.2,1.49-2.35,4.65-5.55,4.98-7.9.99-7.91-8.29-14.8-15.59-14.46-9.45.51-15.09,8.41-17.41,17.15-2.16,8.41-4.64,24.55-4.98,33.63-.33,29.43,20.57,43.55,45.45,47.59,15.42,2.69,34.66,2.86,48.26-4.04,11.94-6.05,31.02-25.06,40.64-46.25,8.62-18.83,8.29-39.18,6.47-53.14-8.63-67.43-71.98-75.34-122.07-71.97-36.82,2.69-73.97,28.59-88.4,65.75-18.24,47.25-18.74,87.78,17.25,122.93,2.16,2.19,5.14,6.39,4.48,9.25-.5,3.36-5.47,4.54-7.8,4.71-6.97.51-13.76-4.03-18.58-7.4-33.34-26.91-39.31-94.34-20.9-135.54,2.32-5.05,5.97-9.25,9.12-13.79,28.2-41.54,50.26-66.09,98.85-74.5,68.83-11.94,153.25,31.11,158.06,109.64l.17-.17ZM54.16,91.02c7.3-2.69,15.92,2.19,21.89,5.21,4.98,2.69,9.12,5.89,13.77,8.75,8.12,5.04,21.06,11.6,24.55,22.03,2.65,8.74-2.82,18.5-13.27,19.34-8.13.5-13.6-5.21-19.07-10.26-6.8-6.05-14.6-12.44-21.89-18.5-4.48-4.04-11.28-7.9-12.77-15.14-1-5.55,2.32-9.75,6.8-11.44ZM366.97,40.57c4.98-.84,9.95,1.01,11.28,5.04,1.83,6.05-2.16,11.94-3.32,16.14-2.16,5.55-3.32,10.26-5.14,14.8-3.98,9.59-10.45,18-16.75,22.7-9.12,6.56-24.22,3.36-22.72-12.45.99-9.75,8.13-21.36,13.6-27.75,3.15-3.36,6.8-7.4,10.12-10.26,4.15-3.7,8.13-7.06,13.1-8.24h-.17ZM149.03,12.48c3.65-.84,7.3,4.54,8.29,7.9,1.49,4.2,2.82,13.28,5.47,22.03.99,4.03,2.32,7.4,3.32,10.26,1.33,3.19,3.32,6.56,3.98,9.75,3.65,18.16-18.58,21.36-25.38,8.91-2.82-5.55-3.65-18-4.15-26.4-.5-11.44-.83-30.44,8.29-32.46h.17Z"/></g></svg>